<svg xmlns="http://www.w3.org/2000/svg" width="48" height="48" viewBox="0 0 48 48">
  <rect x="4" y="8" width="40" height="32" rx="4" ry="4" fill="#E0E0E0" stroke="#999" stroke-width="2"/>
  <clipPath id="borderFrameMask">
    <rect x="5" y="9" width="38" height="30" rx="3" ry="3"/>
  </clipPath>
  <g clip-path="url(#borderFrameMask)">
    <polygon points="8,32 18,20 28,30 36,22 44,32 44,40 4,40 4,32" fill="#B0BEC5"/>
    <circle cx="16" cy="16" r="4" fill="#90A4AE"/>
    <path d="M18,23 L30,23 L29,36 L19,36 Z" fill="#E53935"/>
    <path d="M18,21 L30,21 C30,21 29,19 24,19 C19,19 18,21 18,21 Z" fill="#C62828"/>
    <ellipse cx="24" cy="19" rx="1.8" ry="0.7" fill="#B71C1C"/>
    <path d="M20,27 L28,27 M20,31 L28,31" stroke="#C62828" stroke-width="0.5"/>
    <path d="M21,24 Q21,26 20.5,28 Q20.5,30 21,32" stroke="#EF9A9A" stroke-width="0.5" fill="none"/>
    <path d="M27,24 Q27,26 27.5,28 Q27.5,30 27,32" stroke="#EF9A9A" stroke-width="0.5" fill="none"/>
  </g>
</svg>